<?xml version="1.0" encoding="utf-8"?>
<!-- Generator: Adobe Illustrator 18.0.0, SVG Export Plug-In . SVG Version: 6.00 Build 0)  -->
<!DOCTYPE svg PUBLIC "-//W3C//DTD SVG 1.1//EN" "http://www.w3.org/Graphics/SVG/1.1/DTD/svg11.dtd">
<svg version="1.1" id="Layer_1" xmlns="http://www.w3.org/2000/svg" xmlns:xlink="http://www.w3.org/1999/xlink" x="0px" y="0px"
	 viewBox="0 344.6 532 161.3" enable-background="new 0 344.6 532 161.3" xml:space="preserve">
<g id="BACKGROUND">
</g>
<g>
	<g>
		<path fill="#FF6C08" d="M49.7,394.3c5.3-5.3,16.8-17.1,32.4-11.3c11.8,4.4,36.8,14.9,53.2,19.7l3.8-0.7
			c-8.5-28.7-35-49.6-66.4-49.6c-38.2,0-69.2,31-69.2,69.2c0,38.2,31,69.2,69.2,69.2c25.9,0,48.5-14.3,60.4-35.3
			c-22.1-0.3-27.4-17.2-32.6-14c-1.8,1.1-5.7,3.6-10.4,6.1l5.3,6.4c10.5,13.1-2.4,21.7-2.4,21.7l-3.3-3.7c-2.1,5.3-6.6,8.3-6.6,8.3
			l-5.2-5.9c-1.4,1.4-2.5,2.1-2.5,2.1l-16-18l4-15.5c0,0,0.3,0.1,1.2,0.5c3.6-10.7,22.3-26.1,27.8-30.6l-1.8-0.9H69
			c0,0-1.1,4.2-10.4,10.4c11.1,30.4-12.4,35.2-12.4,35.2s-7.5-26.8-11.5-36.8C30.7,411.1,44.4,399.6,49.7,394.3z"/>
		<path fill="#FF6C08" stroke="#E56031" stroke-miterlimit="10" d="M83.9,450.5c-0.4,0.2-0.9,0.4-1.3,0.5l0.8,1L83.9,450.5z"/>
	</g>
	<path fill="#CE783E" d="M49.9,434.1c11.3,18,21.6,7.6,21.6,7.6l12.6-36.2l-20.6-2l-15,24.3L49.9,434.1z"/>
	<path fill="#FFFFFF" stroke="#FF6C08" stroke-linecap="round" stroke-linejoin="round" stroke-miterlimit="10" d="M146.2,400.6
		l-10.9,2c-16.4-4.9-41.4-15.3-53.2-19.7c-15.5-5.8-27,6-32.4,11.3c-5.3,5.3-19,16.8-15.1,26.6c4,10,11.5,36.8,11.5,36.8
		s23.5-4.9,12.4-35.2C67.9,416.2,69,412,69,412h21.5l58.5,31.1"/>
	<path fill="#FFFFFF" stroke="#FF6C08" stroke-miterlimit="10" d="M80.3,461.5l12.6,14.2c0,0,13-8.6,2.4-21.7L86.3,443L80.3,461.5z"
		/>
	<path fill="#FF6C08" d="M77,467.7l4.9,5.9c2,2.5,5.7,2.8,8.2,0.8c2.5-2,2.8-5.7,0.8-8.2l-4.9-5.9L77,467.7z"/>
	<path fill="#FFFFFF" stroke="#FF6C08" stroke-miterlimit="10" d="M68.4,463.8L83,480.3c0,0,15.1-10,2.8-25.2l-10.6-12.7L68.4,463.8
		z"/>
	<path fill="#FF6C08" d="M67.5,469.4l4.9,5.9c2,2.5,5.7,2.8,8.2,0.8c2.5-2,2.8-5.7,0.8-8.2l-4.9-5.9L67.5,469.4z"/>
	<path fill="#FFFFFF" stroke="#FF6C08" stroke-miterlimit="10" d="M59.3,458.6l16,18c0,0,16.4-10.9,3.1-27.5
		c-12.2-4.9-15.1-6-15.1-6L59.3,458.6z"/>
	<path fill="#FF6C08" d="M59.5,465.6l4.9,5.9c2,2.5,5.7,2.8,8.2,0.8c2.5-2,2.8-5.7,0.8-8.2l-4.9-5.9L59.5,465.6z"/>
	<g>
		<path fill="#064787" d="M100.5,371.3l-61,111c4,2.2,8.3,4,12.7,5.4l56.3-102.6"/>
		<polyline fill="#064787" points="108.5,385.1 121.6,361.4 109.5,354.8 100.5,371.3 		"/>
		<path fill="#064787" d="M37.8,487.6l-1,15.2l12.9-9.7C45.5,491.7,41.5,489.8,37.8,487.6z"/>
	</g>
	<path fill="#FFFFFF" stroke="#E56031" stroke-linecap="round" stroke-linejoin="round" stroke-miterlimit="10" d="M163.4,447.6
		c-14.5-1.9-21,7.4-28.3,7.9c-23.7,0.7-29.3-17.3-34.6-14c-5.3,3.3-29.7,19.1-35.9,8.2c-6.2-10.9,29.3-38,29.3-38"/>
	<path fill="#FF6C08" d="M76.5,435.3l-6.4,4.3c-2.7,1.8-3.3,5.4-1.5,8.1c1.8,2.7,5.4,3.3,8.1,1.5l6.4-4.3L76.5,435.3z"/>
	<path fill="#FF6C08" d="M36.2,441.2l2,7.4c0.8,3.1,4,5,7.1,4.1c3.1-0.8,4.9-4,4.1-7.1l-2-7.4L36.2,441.2z"/>
	<path fill="none" stroke="#E56031" stroke-linecap="round" stroke-linejoin="round" stroke-miterlimit="10" d="M47.1,419.7
		c0,0,5,3,11.5,2.8"/>
	<path fill="none" stroke="#E56031" stroke-linecap="round" stroke-linejoin="round" stroke-miterlimit="10" d="M65.1,406.2
		c0,0,1.1,3.7,3.9,5.8"/>
	<path fill="#FF6C08" d="M123.7,358.6l0.7-1.2c1.9-3.5,0.7-7.9-2.8-9.9c-3.5-1.9-7.9-0.7-9.9,2.8l-0.7,1.2L123.7,358.6z"/>
	<path fill="none" stroke="#E56031" stroke-linecap="round" stroke-miterlimit="10" d="M93.9,411.7c0,0,6.4-4.2,14.8-4"/>
	<line fill="none" stroke="#E56031" stroke-linecap="round" stroke-miterlimit="10" x1="77.4" y1="412.3" x2="63" y2="438.7"/>
</g>
<g>
	<g>
		<path fill="#064787" d="M117.3,401.9h4h4v14c3-2.7,6.6-4,10.6-4c4.6,0,8.5,1.7,11.7,5.2c3.2,3.5,4.8,7.7,4.8,12.6
			s-1.6,9.1-4.8,12.6s-7.1,5.2-11.7,5.2c-4.3,0-8.1-1.6-11.2-4.6v3.5h-7.4V401.9z M134.6,440.2c2.8,0,5.1-1,7-3s2.8-4.5,2.8-7.5
			c0-3-0.9-5.5-2.8-7.5s-4.2-3-7-3c-2.8,0-5.1,1-7,3c-1.9,2-2.8,4.5-2.8,7.5s0.9,5.5,2.8,7.5C129.5,439.2,131.8,440.2,134.6,440.2z"
			/>
		<path fill="#064787" d="M172.3,447.4c-4.6,0-8.5-1.7-11.7-5.2s-4.8-7.6-4.8-12.6s1.6-9.1,4.8-12.6c3.2-3.5,7.1-5.2,11.7-5.2
			c4.4,0,8.2,1.6,11.3,4.8V413h7.4v33.3h-3.7h-3.7v-3.6C180.4,445.8,176.7,447.4,172.3,447.4z M173.6,419.1c-2.8,0-5.1,1-7,3
			s-2.8,4.5-2.8,7.5c0,3,0.9,5.5,2.8,7.5s4.2,3,7,3c2.8,0,5.1-1,7-3c1.9-2,2.8-4.5,2.8-7.5s-0.9-5.5-2.8-7.5
			C178.7,420.1,176.4,419.1,173.6,419.1z"/>
		<path fill="#064787" d="M197.5,413h3.7h3.7v2.5l0.4-0.5c1.5-2.1,3.8-3.1,6.9-3.1h0.5v7.6c-2.2,0.2-4,0.7-5.2,1.8
			c-1.4,1.2-2.1,3.1-2.1,5.7v19.3h-4h-4V413z"/>
		<path fill="#064787" d="M231.1,447.4c-4.6,0-8.5-1.7-11.7-5.2s-4.8-7.6-4.8-12.6s1.6-9.1,4.8-12.6c3.2-3.5,7.1-5.2,11.7-5.2
			c4.4,0,8.2,1.6,11.3,4.8V413h7.4v33.3h-3.7h-3.7v-3.6C239.2,445.8,235.5,447.4,231.1,447.4z M232.4,419.1c-2.8,0-5.1,1-7,3
			s-2.8,4.5-2.8,7.5c0,3,0.9,5.5,2.8,7.5s4.2,3,7,3c2.8,0,5.1-1,7-3c1.9-2,2.8-4.5,2.8-7.5s-0.9-5.5-2.8-7.5
			C237.5,420.1,235.2,419.1,232.4,419.1z"/>
		<path fill="#064787" d="M255.3,401.9h4h4v14c3-2.7,6.6-4,10.6-4c4.6,0,8.5,1.7,11.7,5.2c3.2,3.5,4.8,7.7,4.8,12.6
			s-1.6,9.1-4.8,12.6s-7.1,5.2-11.7,5.2c-4.3,0-8.1-1.6-11.2-4.6v3.5h-7.4V401.9z M272.6,440.2c2.8,0,5.1-1,7-3s2.8-4.5,2.8-7.5
			c0-3-0.9-5.5-2.8-7.5s-4.2-3-7-3c-2.8,0-5.1,1-7,3c-1.9,2-2.8,4.5-2.8,7.5s0.9,5.5,2.8,7.5C267.5,439.2,269.9,440.2,272.6,440.2z"
			/>
		<path fill="#064787" d="M310.3,447.4c-4.6,0-8.5-1.7-11.7-5.2s-4.8-7.6-4.8-12.6s1.6-9.1,4.8-12.6c3.2-3.5,7.1-5.2,11.7-5.2
			c4.4,0,8.2,1.6,11.3,4.8V413h7.4v33.3h-3.7h-3.7v-3.6C318.5,445.8,314.7,447.4,310.3,447.4z M311.6,419.1c-2.8,0-5.1,1-7,3
			s-2.8,4.5-2.8,7.5c0,3,0.9,5.5,2.8,7.5s4.2,3,7,3c2.8,0,5.1-1,7-3s2.8-4.5,2.8-7.5s-0.9-5.5-2.8-7.5
			C316.7,420.1,314.4,419.1,311.6,419.1z"/>
		<path fill="#064787" d="M335,413h3.7h3.7v2.9c2.6-2.7,5.7-4,9.3-4c3.9,0,7.1,1.3,9.4,4s3.5,6.3,3.5,10.8v19.6h-4h-4v-17.8
			c0-3-0.6-5.4-1.7-6.9s-2.8-2.4-5-2.4c-2.3,0-4,0.8-5.2,2.4c-1.2,1.6-1.7,4-1.7,7.2v17.5h-4h-4V413z"/>
		<path fill="#064787" d="M380.6,446.3h-4h-4v-44.4h4h4v27h0l10.7-15.9h4.6h4.7l-12.4,16.1l13.9,17.2h-4.8h-4.8l-11.9-15.9h0V446.3z
			"/>
		<path fill="#064787" d="M405.8,401.9h8v7.3h-8V401.9z M405.8,413h4h4v33.3h-4h-4V413z"/>
		<path fill="#064787" d="M421.4,438.3h8v8h-8V438.3z"/>
		<path fill="#064787" d="M440.4,442.2c-3.4-3.4-5.2-7.6-5.2-12.6s1.7-9.1,5.2-12.6c3.4-3.5,7.6-5.2,12.5-5.2
			c4.9,0,9.1,1.7,12.6,5.2c3.4,3.5,5.2,7.7,5.2,12.6s-1.7,9.1-5.2,12.6s-7.6,5.2-12.6,5.2C448.1,447.4,443.9,445.7,440.4,442.2z
			 M459.9,437.1c1.9-2,2.8-4.5,2.8-7.4s-0.9-5.5-2.8-7.5c-1.9-2-4.2-3-6.9-3c-2.7,0-5,1-6.9,3c-1.9,2-2.8,4.5-2.8,7.5
			s0.9,5.4,2.8,7.4s4.2,3,6.9,3C455.7,440.1,458,439.1,459.9,437.1z"/>
		<path fill="#064787" d="M476,413h3.7h3.7v2.5l0.4-0.5c1.5-2.1,3.8-3.1,6.9-3.1h0.5v7.6c-2.2,0.2-4,0.7-5.2,1.8
			c-1.4,1.2-2.1,3.1-2.1,5.7v19.3h-4h-4V413z"/>
		<path fill="#064787" d="M510.8,452.6c3.1,0,5.7-1.1,7.7-3.2c1.7-1.9,2.7-4.2,2.9-7.1c-3.3,3.4-7.2,5.1-11.7,5.1
			c-4.5,0-8.4-1.7-11.6-5.2s-4.8-7.6-4.8-12.6s1.6-9.1,4.8-12.6c3.2-3.5,7.1-5.2,11.6-5.2c4.4,0,8.2,1.6,11.3,4.8V413h7.7v27
			c0,6-1.7,10.8-5,14.4s-7.7,5.4-13.3,5.4c-4,0-7.5-1-10.5-3s-5-4.7-6-8h9.3c0.6,1.1,1.5,2,2.9,2.7S509.1,452.6,510.8,452.6z
			 M511,419.1c-2.8,0-5.1,1-6.9,3s-2.8,4.5-2.8,7.5c0,3,0.9,5.5,2.8,7.5s4.2,3,6.9,3c2.8,0,5.1-1,6.9-3s2.8-4.5,2.8-7.5
			s-0.9-5.5-2.8-7.5C516.1,420.1,513.8,419.1,511,419.1z"/>
	</g>
</g>
<g>
	<path fill="#FF6C08" d="M237.3,451h1.4h2.3c1.5,0,2.8,0.3,3.7,1s1.4,1.6,1.4,2.8c0,1.1-0.5,2-1.4,2.7l-0.3,0.2
		c0.4,0.2,0.7,0.3,1,0.6c1,0.7,1.5,1.8,1.5,3c0,1.4-0.5,2.5-1.5,3.3s-2.3,1.2-4,1.2h-2.8h-1.4V451z M240.1,456.8h1
		c0.8,0,1.3-0.1,1.7-0.4s0.6-0.7,0.6-1.2s-0.2-0.9-0.6-1.2s-1-0.4-1.7-0.4h-1V456.8z M240.1,463.3h1.4c0.9,0,1.6-0.2,2-0.5
		s0.7-0.8,0.7-1.5c0-0.7-0.2-1.2-0.7-1.5s-1.2-0.5-2.2-0.5h-1.2V463.3z"/>
	<path fill="#FF6C08" d="M254.5,469.6h-1.4h-1.4l2.1-4.7v0l-4.1-10.1h1.5h1.5l2.5,7.2h0l2.7-7.2h1.5h1.5L254.5,469.6z"/>
	<path fill="#FF6C08" d="M272,465.8V451h8v1.3v1.3h-5.2v3.6h5v1.3v1.3h-5v3.5h5.2v1.3v1.3H272z"/>
	<path fill="#FF6C08" d="M288.7,457.7c-0.1-0.3-0.2-0.5-0.4-0.7s-0.4-0.2-0.7-0.2c-0.3,0-0.6,0.1-0.7,0.3s-0.3,0.4-0.3,0.7
		c0,0.3,0.1,0.5,0.4,0.6s0.7,0.3,1.4,0.6c1.2,0.4,2,0.8,2.5,1.3c0.5,0.5,0.7,1.2,0.7,2.1c0,1.1-0.4,2-1.1,2.7
		c-0.7,0.7-1.7,1.1-2.8,1.1c-1.2,0-2.1-0.4-2.9-1.1c-0.8-0.7-1.2-1.6-1.2-2.8h2.7c0.1,0.5,0.2,0.8,0.5,1.1s0.6,0.4,0.9,0.4
		c0.4,0,0.7-0.1,0.9-0.3s0.4-0.5,0.4-0.8c0-0.3-0.1-0.6-0.3-0.8c-0.2-0.2-0.6-0.4-1.2-0.6c-1.2-0.4-2.1-0.8-2.6-1.4
		c-0.5-0.5-0.8-1.2-0.8-2.1c0-1,0.4-1.9,1.1-2.5s1.6-1,2.7-1c1,0,1.8,0.3,2.5,1s1.1,1.4,1.1,2.4H288.7z"/>
	<path fill="#FF6C08" d="M306.1,462.2c-0.4,1.2-1.1,2.2-2.1,2.9s-2.2,1.1-3.5,1.1c-1.6,0-3-0.6-4.2-1.7s-1.7-2.5-1.7-4.2
		s0.6-3,1.7-4.2s2.5-1.7,4.2-1.7c1.3,0,2.5,0.4,3.5,1.1s1.7,1.7,2.1,2.9h-3c-0.3-0.5-0.6-0.9-1.1-1.2s-1-0.4-1.6-0.4
		c-0.9,0-1.6,0.3-2.2,1s-0.9,1.5-0.9,2.4c0,1,0.3,1.9,0.9,2.5s1.4,1,2.3,1c0.5,0,1-0.1,1.4-0.4s0.8-0.7,1-1.1H306.1z"/>
	<path fill="#FF6C08" d="M311,464.5c-1.1-1.1-1.7-2.5-1.7-4.2s0.6-3,1.7-4.2s2.5-1.7,4.2-1.7c1.6,0,3,0.6,4.2,1.7s1.7,2.6,1.7,4.2
		s-0.6,3-1.7,4.2s-2.5,1.7-4.2,1.7C313.5,466.2,312.1,465.6,311,464.5z M317.5,462.8c0.6-0.7,0.9-1.5,0.9-2.5s-0.3-1.8-0.9-2.5
		s-1.4-1-2.3-1c-0.9,0-1.7,0.3-2.3,1s-0.9,1.5-0.9,2.5s0.3,1.8,0.9,2.5s1.4,1,2.3,1C316.1,463.8,316.8,463.4,317.5,462.8z"/>
	<path fill="#FF6C08" d="M324.6,454.7h1.2h1.2v1c0.9-0.9,1.9-1.3,3.1-1.3c1.3,0,2.4,0.4,3.1,1.3s1.2,2.1,1.2,3.6v6.5h-1.3h-1.3v-5.9
		c0-1-0.2-1.8-0.6-2.3s-0.9-0.8-1.7-0.8c-0.8,0-1.3,0.3-1.7,0.8s-0.6,1.3-0.6,2.4v5.8H326h-1.3V454.7z"/>
	<path fill="#FF6C08" d="M346.6,451h1.4h1.4v14.8H348h-1.4V451z"/>
	<path fill="#FF6C08" d="M353.8,454.7h1.2h1.2v1c0.9-0.9,1.9-1.3,3.1-1.3c1.3,0,2.4,0.4,3.1,1.3s1.2,2.1,1.2,3.6v6.5h-1.3H361v-5.9
		c0-1-0.2-1.8-0.6-2.3s-0.9-0.8-1.7-0.8c-0.8,0-1.3,0.3-1.7,0.8s-0.6,1.3-0.6,2.4v5.8h-1.3h-1.3V454.7z"/>
	<path fill="#FF6C08" d="M370.7,457.1v8.8h-1.3H368v-8.8h-0.9v-2.3h0.9c0.1-1.2,0.4-2.1,1-2.9c0.7-0.8,1.6-1.1,2.8-1.1l0.5,0v2.6
		h-0.1c-0.5,0-0.9,0.1-1.2,0.3s-0.4,0.6-0.4,1v0h1.6v2.3H370.7z"/>
	<path fill="#FF6C08" d="M376.6,464.5c-1.1-1.1-1.7-2.5-1.7-4.2s0.6-3,1.7-4.2s2.5-1.7,4.2-1.7c1.6,0,3,0.6,4.2,1.7s1.7,2.6,1.7,4.2
		s-0.6,3-1.7,4.2s-2.5,1.7-4.2,1.7C379.1,466.2,377.7,465.6,376.6,464.5z M383,462.8c0.6-0.7,0.9-1.5,0.9-2.5s-0.3-1.8-0.9-2.5
		s-1.4-1-2.3-1c-0.9,0-1.7,0.3-2.3,1s-0.9,1.5-0.9,2.5s0.3,1.8,0.9,2.5s1.4,1,2.3,1C381.7,463.8,382.4,463.4,383,462.8z"/>
	<path fill="#FF6C08" d="M403.5,454.9c-0.1-0.6-0.2-1-0.5-1.2c-0.3-0.3-0.7-0.4-1.1-0.4c-0.5,0-0.8,0.1-1.1,0.4
		c-0.3,0.3-0.4,0.7-0.4,1.1c0,0.5,0.1,0.8,0.4,1.1c0.3,0.3,0.8,0.5,1.7,0.8c1.5,0.5,2.6,1.1,3.3,1.8c0.6,0.7,1,1.6,1,2.8
		c0,1.4-0.4,2.5-1.3,3.4s-2.1,1.3-3.5,1.3c-1.3,0-2.4-0.4-3.3-1.3c-0.9-0.8-1.4-1.9-1.5-3.3h2.9c0.1,0.6,0.3,1.1,0.6,1.5
		s0.8,0.5,1.4,0.5c0.6,0,1.1-0.2,1.5-0.5s0.6-0.8,0.6-1.3c0-0.6-0.2-1.1-0.6-1.4c-0.4-0.3-1.1-0.7-2.1-1c-1.3-0.4-2.2-1-2.8-1.7
		c-0.6-0.7-0.8-1.5-0.8-2.6c0-1.3,0.4-2.3,1.2-3.1s1.9-1.2,3.1-1.2c1.2,0,2.2,0.4,3,1.2c0.8,0.8,1.3,1.8,1.3,3H403.5z"/>
	<path fill="#FF6C08" d="M414.1,469.6h-1.4h-1.4l2.1-4.7v0l-4.1-10.1h1.5h1.5l2.5,7.2h0l2.7-7.2h1.5h1.5L414.1,469.6z"/>
	<path fill="#FF6C08" d="M428.3,457.7c-0.1-0.3-0.2-0.5-0.4-0.7s-0.4-0.2-0.7-0.2c-0.3,0-0.6,0.1-0.7,0.3s-0.3,0.4-0.3,0.7
		c0,0.3,0.1,0.5,0.4,0.6c0.2,0.2,0.7,0.3,1.4,0.6c1.2,0.4,2,0.8,2.5,1.3c0.5,0.5,0.7,1.2,0.7,2.1c0,1.1-0.4,2-1.1,2.7
		c-0.7,0.7-1.7,1.1-2.8,1.1c-1.2,0-2.1-0.4-2.9-1.1s-1.2-1.6-1.2-2.8h2.7c0.1,0.5,0.2,0.8,0.5,1.1c0.2,0.2,0.6,0.4,0.9,0.4
		c0.4,0,0.7-0.1,0.9-0.3s0.4-0.5,0.4-0.8c0-0.3-0.1-0.6-0.3-0.8c-0.2-0.2-0.6-0.4-1.2-0.6c-1.2-0.4-2.1-0.8-2.6-1.4
		c-0.5-0.5-0.8-1.2-0.8-2.1c0-1,0.4-1.9,1.1-2.5c0.7-0.7,1.6-1,2.7-1c1,0,1.8,0.3,2.5,1s1.1,1.4,1.1,2.4H428.3z"/>
	<path fill="#FF6C08" d="M435.2,465.8v-8.8H434v-2.3h1.3V451h2.7v3.7h1.6v2.3h-1.6v8.8H435.2z"/>
	<path fill="#FF6C08" d="M447.9,466.2c-1.6,0-3-0.6-4.1-1.7s-1.7-2.5-1.7-4.2s0.6-3,1.7-4.2s2.5-1.7,4.1-1.7c1.6,0,3,0.6,4.1,1.7
		s1.7,2.6,1.7,4.2c0,0.4,0,0.8-0.1,1.2H445c0.1,0.5,0.4,0.9,0.8,1.3c0.6,0.7,1.4,1,2.3,1c0.6,0,1.1-0.1,1.5-0.4s0.8-0.6,1-1h2.8
		c-0.4,1.2-1,2.1-2,2.8S449.2,466.2,447.9,466.2z M451,459.3c-0.1-0.6-0.4-1.1-0.8-1.5c-0.6-0.7-1.3-1-2.2-1s-1.6,0.3-2.2,1
		c-0.4,0.4-0.7,1-0.8,1.5H451z"/>
	<path fill="#FF6C08" d="M457.4,454.7h1.2h1.2v0.9c0.8-0.9,1.8-1.3,2.9-1.3c1.2,0,2.3,0.5,3.1,1.4l0.2,0.2l0.2-0.2
		c0.9-0.9,2-1.4,3.4-1.4c1.4,0,2.4,0.4,3.2,1.3c0.8,0.9,1.2,2,1.2,3.5v6.7h-1.3h-1.3v-6.3c0-0.9-0.2-1.6-0.5-2.1s-0.9-0.7-1.6-0.7
		c-0.7,0-1.3,0.3-1.7,0.8s-0.5,1.3-0.5,2.4v5.8h-1.3h-1.3v-6c0-1-0.2-1.8-0.6-2.3s-0.9-0.8-1.6-0.8s-1.3,0.3-1.6,0.8
		s-0.5,1.3-0.5,2.4v5.8h-1.3h-1.3V454.7z"/>
	<path fill="#FF6C08" d="M482.7,457.7c-0.1-0.3-0.2-0.5-0.4-0.7s-0.4-0.2-0.7-0.2c-0.3,0-0.6,0.1-0.7,0.3s-0.3,0.4-0.3,0.7
		c0,0.3,0.1,0.5,0.4,0.6c0.2,0.2,0.7,0.3,1.4,0.6c1.2,0.4,2,0.8,2.5,1.3c0.5,0.5,0.7,1.2,0.7,2.1c0,1.1-0.4,2-1.1,2.7
		c-0.7,0.7-1.7,1.1-2.8,1.1c-1.2,0-2.1-0.4-2.9-1.1s-1.2-1.6-1.2-2.8h2.7c0.1,0.5,0.2,0.8,0.5,1.1c0.2,0.2,0.6,0.4,0.9,0.4
		c0.4,0,0.7-0.1,0.9-0.3s0.4-0.5,0.4-0.8c0-0.3-0.1-0.6-0.3-0.8c-0.2-0.2-0.6-0.4-1.2-0.6c-1.2-0.4-2.1-0.8-2.6-1.4
		c-0.5-0.5-0.8-1.2-0.8-2.1c0-1,0.4-1.9,1.1-2.5c0.7-0.7,1.6-1,2.7-1c1,0,1.8,0.3,2.5,1s1.1,1.4,1.1,2.4H482.7z"/>
</g>
</svg>
